<?xml version="1.0" encoding="UTF-8"?>
<svg width="1500px" height="1500px" viewBox="0 0 1500 1500" version="1.1" xmlns="http://www.w3.org/2000/svg" xmlns:xlink="http://www.w3.org/1999/xlink">
    <!-- Generator: Sketch 52.4 (67378) - http://www.bohemiancoding.com/sketch -->
    <title>Group 42</title>
    <desc>Created with Sketch.</desc>
    <g id="Page-2" stroke="none" stroke-width="1" fill="none" fill-rule="evenodd">
        <g id="Artboard" transform="translate(-3617.000000, -2787.000000)">
            <g id="Group-42" transform="translate(3617.000000, 2787.000000)">
                <g id="145" transform="translate(214.000000, 90.000000)">
                    <path d="M568.062881,275 C490.628871,272.175 462.578533,245.175 483.911866,194 C515.911866,117.2375 559.300494,82.7583333 561.352695,61.8791667 C562.720829,47.9597222 562.720829,27.3333333 561.352695,0 C593.63812,45.8333333 614.302671,80.2083333 623.346349,103.125 C636.911866,137.5 652.911866,201 644.911866,216 C636.911866,231 609.789407,262.725 603.911866,268.8625 C599.993506,272.954167 588.043844,275 568.062881,275 Z" id="Path-2-Copy" fill="#FFD15C" fill-rule="nonzero"></path>
                    <path d="M873.062881,412 C795.628871,409.175 767.578533,382.175 788.911866,331 C820.911866,254.2375 864.300494,219.758333 866.352695,198.879167 C867.720829,184.959722 867.720829,164.333333 866.352695,137 C898.63812,182.833333 919.302671,217.208333 928.346349,240.125 C941.911866,274.5 957.911866,338 949.911866,353 C941.911866,368 914.789407,399.725 908.911866,405.8625 C904.993506,409.954167 893.043844,412 873.062881,412 Z" id="Path-2-Copy-2" fill="#FFD15C" fill-rule="nonzero"></path>
                    <g id="Group" transform="translate(506.625000, 99.000000)">
                        <rect id="Rectangle" fill="#FFD15C" x="0.1375" y="190.51875" width="128.475" height="383.389583"></rect>
                        <path d="M114.3375,105.84375 C114.3375,134.06875 90.5458333,155.2375 64.375,155.2375 C35.825,155.2375 14.4125,131.716667 14.4125,105.84375 C14.4125,79.9708333 64.375,0 64.375,0 C64.375,0 114.3375,77.61875 114.3375,105.84375 Z" id="Path" fill="#FF7058"></path>
                    </g>
                    <g id="Group" transform="translate(179.333333, 137.125000)">
                        <g>
                            <rect id="Rectangle" fill="#FFD15C" x="30.0333333" y="293.51875" width="128.475" height="242.264583"></rect>
                            <path d="M91.0628806,275 C13.628871,272.175 -14.4214671,245.175 6.91186628,194 C38.9118663,117.2375 82.3004944,82.7583333 84.3526951,61.8791667 C85.7208289,47.9597222 85.7208289,27.3333333 84.3526951,0 C116.63812,45.8333333 137.302671,80.2083333 146.346349,103.125 C159.911866,137.5 175.911866,201 167.911866,216 C159.911866,231 132.789407,262.725 126.911866,268.8625 C122.993506,272.954167 111.043844,275 91.0628806,275 Z" id="Path-2" fill="#FFD15C" fill-rule="nonzero"></path>
                            <path d="M144.233333,208.84375 C144.233333,237.06875 120.441667,258.2375 94.2708333,258.2375 C68.1,258.2375 44.3083333,234.716667 44.3083333,208.84375 C44.3083333,180.61875 94.2708333,103 94.2708333,103 C94.2708333,103 144.233333,180.61875 144.233333,208.84375 Z" id="Path" fill="#FF7058"></path>
                        </g>
                        <g transform="translate(624.791667, 103.000000)">
                            <rect id="Rectangle" fill="#FFD15C" x="0.0333333333" y="190.51875" width="128.475" height="242.264583"></rect>
                            <path d="M116.6125,105.84375 C116.6125,134.06875 92.8208333,155.2375 66.65,155.2375 C38.1,155.2375 16.6875,131.716667 16.6875,105.84375 C16.6875,77.61875 66.65,0 66.65,0 C66.65,0 116.6125,77.61875 116.6125,105.84375 Z" id="Path" fill="#FF7058"></path>
                        </g>
                    </g>
                    <rect id="Rectangle" fill="#E8EAEA" x="14.275" y="691.725" width="1111.07083" height="536.275"></rect>
                    <rect id="Rectangle" fill="#FFD15C" x="14.275" y="863.427083" width="1111.07083" height="192.870833"></rect>
                    <path d="M1070.625,656.44375 L71.375,656.44375 C30.9291667,656.44375 0,687.020833 0,727.00625 L0,816.385417 C0,875.1875 49.9625,922.229167 109.441667,924.58125 L111.820833,924.58125 C154.645833,924.58125 192.7125,905.764583 221.2625,877.539583 L202.229167,941.045833 C199.85,962.214583 218.883333,983.383333 237.916667,988.0875 C266.466667,992.791667 292.6375,971.622917 292.6375,943.397917 C273.604167,868.13125 306.9125,806.977083 375.908333,818.7375 C473.454167,901.060417 571,863.427083 670.925,835.202083 C668.545833,844.610417 663.7875,856.370833 661.408333,865.779167 C659.029167,868.13125 659.029167,872.835417 659.029167,877.539583 C659.029167,889.3 668.545833,901.060417 682.820833,903.4125 C701.854167,908.116667 716.129167,894.004167 716.129167,875.1875 C716.129167,870.483333 716.129167,868.13125 713.75,865.779167 C708.991667,854.01875 704.233333,839.90625 701.854167,825.79375 C725.645833,839.90625 742.3,863.427083 749.4375,891.652083 C756.575,926.933333 792.2625,957.510417 868.395833,962.214583 C920.7375,964.566667 961.183333,891.652083 961.183333,924.58125 C961.183333,952.80625 1046.83333,952.80625 1075.38333,941.045833 C1070.625,948.102083 1068.24583,955.158333 1068.24583,962.214583 C1068.24583,969.270833 1075.38333,978.679167 1082.52083,978.679167 C1094.41667,981.03125 1103.93333,971.622917 1103.93333,962.214583 C1099.175,952.80625 1096.79583,943.397917 1094.41667,933.989583 C1092.0375,922.229167 1099.175,910.46875 1111.07083,908.116667 C1127.725,903.4125 1142,886.947917 1142,868.13125 L1142,729.358333 C1142,687.020833 1111.07083,656.44375 1070.625,656.44375 Z" id="Path" fill="#F2F2F2"></path>
                </g>
            </g>
        </g>
    </g>
</svg>